<svg width="120" height="44" viewBox="0 0 120 44" fill="none" xmlns="http://www.w3.org/2000/svg">
<path d="M9.4918 21.6089V29.7244C9.4918 30.8489 9.59016 31.68 9.83606 32.2178C10.082 32.7067 10.5246 33.0978 11.1148 33.2444C11.7049 33.44 12.6885 33.5378 14.0656 33.5867V34.4667C12.4918 34.3689 10.2787 34.32 7.37705 34.32C4.77049 34.32 2.85246 34.3689 1.57377 34.4667V33.5867C2.65574 33.5378 3.44262 33.3911 3.9836 33.2444C4.47541 33.0489 4.81967 32.7067 5.01639 32.2178C5.21311 31.7289 5.31147 30.8978 5.31147 29.7244V7.33333C5.31147 6.20889 5.21311 5.37778 5.01639 4.84C4.81967 4.35111 4.47541 3.96 3.9836 3.81333C3.4918 3.66667 2.70492 3.52 1.62295 3.47111V2.54222C2.90164 2.64 4.72131 2.68889 7.18033 2.68889L12.0984 2.64C12.6885 2.59111 13.3279 2.59111 14.0656 2.59111C17.6066 2.59111 20.3115 3.37333 22.1803 4.98667C24.0492 6.6 24.9836 8.75111 24.9836 11.4889C24.9836 13.1511 24.5902 14.7156 23.8525 16.2311C23.1148 17.7956 21.8361 19.0667 20.0656 20.0444C18.2951 21.0711 15.9344 21.56 12.9836 21.56H9.4918V21.6089ZM10.7705 3.76444C10.2787 3.96 9.9836 4.35111 9.78688 4.88889C9.59016 5.42667 9.4918 6.25778 9.4918 7.33333V20.68H12.541C15.4918 20.68 17.5574 19.8978 18.6885 18.3333C19.8197 16.7689 20.4098 14.6178 20.4098 11.9778C20.4098 9.04444 19.8197 6.89333 18.6393 5.52444C17.459 4.15555 15.541 3.47111 12.8361 3.47111C11.9508 3.47111 11.2131 3.56889 10.7705 3.76444Z" fill="white"/>
<path d="M29.1148 33.3911C28.1803 32.4622 27.7377 31.1422 27.7377 29.4311C27.7377 28.0622 28.1311 26.9867 28.8688 26.1067C29.6066 25.2267 30.4918 24.5422 31.5246 24.0533C32.5574 23.5644 33.8852 22.9778 35.5574 22.44C37.2295 21.8533 38.5082 21.3644 39.3443 20.8756C40.1803 20.3867 40.5738 19.7511 40.5738 18.92V16.1333C40.5738 14.3733 40.1803 13.2 39.4426 12.5644C38.7049 11.9289 37.6721 11.5867 36.3443 11.5867C34.2295 11.5867 32.7049 12.1244 31.8688 13.2C32.459 13.3467 33 13.6889 33.3934 14.1289C33.7869 14.6178 33.9836 15.2044 33.9836 15.9378C33.9836 16.6711 33.7377 17.3067 33.2459 17.6978C32.7541 18.1378 32.1639 18.3333 31.377 18.3333C30.541 18.3333 29.9016 18.0889 29.459 17.5511C29.0164 17.0133 28.8197 16.3778 28.8197 15.6444C28.8197 14.9111 29.0164 14.3244 29.3607 13.8356C29.7049 13.3467 30.2459 12.8578 30.9344 12.3689C31.6721 11.88 32.6066 11.44 33.6885 11.0978C34.8197 10.7556 36.0492 10.6089 37.377 10.6089C39.7377 10.6089 41.5082 11.1467 42.7377 12.2711C43.4754 12.9556 44.0164 13.7867 44.2623 14.7644C44.5082 15.7422 44.6557 17.0133 44.6557 18.6267V31.1911C44.6557 31.9244 44.7541 32.4622 44.9508 32.8044C45.1475 33.1467 45.541 33.2933 46.0328 33.2933C46.377 33.2933 46.7213 33.1956 47.0656 33.0489C47.3606 32.9022 47.7049 32.6578 48.0984 32.3644L48.5902 33.1467C47.8033 33.7333 47.1147 34.1733 46.5738 34.4178C46.0328 34.6622 45.2951 34.8089 44.459 34.8089C42.9836 34.8089 42 34.4667 41.4098 33.7333C40.8197 33 40.5246 32.0222 40.5246 30.8C39.6393 32.3156 38.5574 33.3422 37.377 33.9289C36.1967 34.5156 34.8688 34.8089 33.3934 34.8089C31.4262 34.8578 30.0492 34.3689 29.1148 33.3911ZM40.4754 29.5778V20.7289C40.2295 21.1689 39.8361 21.5111 39.3443 21.8044C38.8525 22.0978 38.1147 22.44 37.1311 22.88C36 23.3689 35.0656 23.8089 34.3279 24.2489C33.6393 24.6889 33 25.2756 32.5082 26.0089C32.0164 26.7422 31.7213 27.72 31.7213 28.8933C31.7213 30.2622 32.0656 31.2889 32.7049 31.9733C33.3934 32.6578 34.2295 33 35.3607 33C37.377 33.0489 39.0492 31.8756 40.4754 29.5778Z" fill="white"/>
<path d="M68.2295 12.2748C69.5082 13.1548 70.541 14.4259 71.2295 16.137C71.9672 17.7992 72.3115 19.8526 72.3115 22.1992C72.3115 24.497 71.918 26.697 71.1803 28.7014C70.4426 30.7059 69.3115 32.3681 67.7377 33.6392C66.1639 34.9103 64.2459 35.5459 61.8852 35.5459C60.7541 35.5459 59.6721 35.3014 58.7377 34.8614C57.8033 34.4214 57.0656 33.8348 56.5738 33.1014V38.8703C56.5738 40.0926 56.918 40.9726 57.6557 41.4126C58.3934 41.9014 59.4754 42.097 60.9508 42.097V43.0259L59.918 42.977C57.1148 42.8792 55.2459 42.8303 54.4098 42.8303C53.6721 42.8303 52.0492 42.8792 49.4918 43.0259V42.097C50.623 42.097 51.4098 41.9014 51.8525 41.5103C52.2951 41.1192 52.4918 40.3859 52.4918 39.3103V16.5281C52.4918 15.1592 52.2459 14.1326 51.7049 13.497C51.2131 12.8615 50.2787 12.5681 49 12.5681V11.5903C49.9344 11.6881 50.8689 11.737 51.8033 11.737C53.7213 11.737 55.2951 11.5415 56.5246 11.1015V15.8926C57.2131 14.3281 58.1475 13.1059 59.4262 12.2748C60.7049 11.3948 62.1311 11.0037 63.8033 11.0037C65.5246 10.9548 66.9508 11.3948 68.2295 12.2748ZM67.9344 22.7859C67.9344 15.7948 66.1639 12.3237 62.6721 12.3237C61.2951 12.3237 60.0656 12.8126 58.9836 13.7903C57.9016 14.7681 57.1148 16.1859 56.623 17.9948V31.537C57.0656 32.417 57.6557 33.1014 58.4918 33.6392C59.3279 34.177 60.3115 34.4214 61.4426 34.4214C65.7705 34.4703 67.9344 30.5592 67.9344 22.7859Z" fill="white"/>
<path d="M96 29.0889C95.459 30.7511 94.4262 32.1689 92.9508 33.3422C91.4754 34.5156 89.6557 35.1022 87.541 35.1022C85.377 35.1022 83.5082 34.6133 81.9344 33.6356C80.3606 32.6578 79.1311 31.2889 78.3443 29.5289C77.5082 27.7689 77.1147 25.7156 77.1147 23.4178C77.1147 20.7778 77.5574 18.5289 78.3934 16.6222C79.2295 14.7156 80.459 13.2 81.9836 12.1733C83.5082 11.1467 85.3279 10.6089 87.3934 10.6089C90.0984 10.6089 92.2131 11.44 93.6885 13.0533C95.1639 14.7156 95.9016 17.2089 95.9016 20.5333H81.6885C81.5902 21.3644 81.541 22.3422 81.541 23.4178C81.541 25.4222 81.8852 27.1333 82.5246 28.6C83.1639 30.0667 84.0492 31.1911 85.1311 32.0222C86.2131 32.8044 87.3443 33.1956 88.5246 33.1956C90 33.1956 91.2787 32.8533 92.4098 32.1689C93.541 31.4844 94.4754 30.3111 95.2131 28.6978L96 29.0889ZM83.459 13.5422C82.4262 14.9111 81.7869 16.9644 81.541 19.7022H91.4754C91.5246 17.3556 91.1803 15.4 90.4426 13.8356C89.7049 12.2711 88.6229 11.4889 87.1475 11.4889C85.7213 11.4889 84.4918 12.1733 83.459 13.5422Z" fill="white"/>
<path d="M116.361 11.6844C117.148 12.3689 117.541 13.2 117.541 14.2267C117.541 15.0089 117.295 15.6933 116.852 16.2311C116.361 16.7689 115.771 17.0622 114.984 17.0622C114.295 17.0622 113.754 16.8667 113.262 16.4267C112.771 15.9867 112.574 15.4489 112.574 14.7156C112.574 13.7378 113.066 12.9067 114.098 12.2711C113.902 11.9778 113.557 11.8311 113.164 11.8311C111.984 11.8311 110.902 12.2711 109.918 13.2C108.934 14.1289 108.197 15.2533 107.656 16.5733C107.115 17.8933 106.82 19.1644 106.82 20.3378V29.92C106.82 31.2889 107.213 32.2667 108 32.8044C108.787 33.3422 110.016 33.6356 111.59 33.6356V34.5644L110.508 34.5156C107.41 34.4178 105.443 34.3689 104.607 34.3689C103.82 34.3689 102.049 34.4178 99.2459 34.5644V33.6356C100.525 33.6356 101.41 33.3911 101.951 32.9511C102.443 32.4622 102.738 31.6311 102.738 30.4089V16.1822C102.738 14.8133 102.492 13.7867 101.951 13.1511C101.459 12.5156 100.525 12.2222 99.2459 12.2222V11.2444C100.23 11.3422 101.164 11.3911 102.049 11.3911C103.967 11.3911 105.541 11.1956 106.771 10.7556V16.3778C107.311 14.8622 108.197 13.5422 109.377 12.3689C110.557 11.1956 111.885 10.6089 113.361 10.6089C114.639 10.6089 115.623 10.9511 116.361 11.6844Z" fill="white"/>
</svg>
